<?xml version="1.0" standalone="no"?>
<!DOCTYPE svg PUBLIC "-//W3C//DTD SVG 20010904//EN"
 "http://www.w3.org/TR/2001/REC-SVG-20010904/DTD/svg10.dtd">
<svg version="1.0" xmlns="http://www.w3.org/2000/svg"
 width="512.000000pt" height="512.000000pt" viewBox="0 0 512.000000 512.000000"
 preserveAspectRatio="xMidYMid meet">
<metadata>
Created by potrace 1.14, written by Peter Selinger 2001-2017
</metadata>
<g transform="translate(0.000000,512.000000) scale(0.100000,-0.100000)"
fill="#000000" stroke="none">
<path d="M0 3881 l0 -1239 63 -6 c34 -3 105 -8 157 -11 336 -21 765 -95 1100
-190 484 -137 895 -310 1348 -567 103 -58 105 -58 180 -57 43 1 161 2 264 3
102 0 189 4 193 8 4 3 29 4 56 1 27 -3 49 -2 49 2 0 4 -67 75 -149 157 -82 82
-152 160 -155 171 -3 13 47 -32 117 -104 114 -118 199 -186 256 -204 24 -7 24
-7 5 12 -25 26 -110 83 -123 83 -6 0 -11 4 -11 9 0 5 39 -10 88 -34 48 -24
117 -54 154 -66 l68 -24 36 20 c28 15 38 17 42 7 5 -17 60 -15 79 3 12 12 18
13 29 4 11 -9 15 -8 20 5 8 22 22 20 43 -6 12 -15 28 -21 52 -21 62 2 89 5 85
12 -5 8 42 7 64 -2 48 -17 115 -28 118 -18 2 6 7 9 11 7 11 -7 96 -8 181 -2
41 3 83 6 93 6 10 0 16 4 12 9 -3 6 7 6 27 1 20 -6 36 -6 44 1 15 12 84 22 84
11 0 -4 12 -9 28 -10 21 -1 24 0 12 9 -11 8 -9 9 10 3 14 -3 30 -10 35 -14 6
-4 41 -3 78 2 44 7 76 7 90 1 17 -8 29 -4 59 18 37 26 88 32 118 14 7 -4 10
504 10 1615 l0 1620 -729 0 c-806 -1 -769 3 -737 -61 9 -18 13 -29 9 -25 -4 4
-14 -8 -23 -26 -8 -18 -21 -33 -28 -33 -6 0 -12 -3 -12 -7 0 -5 0 -11 0 -15 0
-3 9 2 20 12 18 16 20 16 20 2 0 -10 4 -17 10 -17 5 0 9 -10 8 -22 -1 -13 2
-33 6 -45 4 -12 2 -24 -4 -28 -5 -3 -10 -12 -10 -18 0 -7 4 -6 10 3 6 9 10 10
10 3 0 -6 3 -20 6 -30 5 -15 4 -15 -5 -3 -9 13 -11 13 -12 0 0 -8 -2 -26 -5
-40 -3 -17 -1 -21 5 -11 7 11 10 11 15 0 3 -8 4 -4 2 8 -3 15 0 20 10 16 13
-5 12 -9 -2 -30 -9 -14 -11 -22 -5 -19 7 4 11 -1 11 -13 0 -10 -6 -22 -12 -25
-7 -3 -2 -3 12 0 23 5 23 4 8 -9 -13 -10 -14 -17 -6 -25 8 -8 8 -15 -2 -27
-11 -13 -11 -18 0 -28 10 -10 11 -9 5 3 -8 13 -7 13 10 0 18 -15 18 -15 -1
-18 -10 -2 -23 -9 -29 -14 -7 -8 -5 -8 5 -3 12 7 13 6 4 -6 -6 -8 -14 -25 -17
-39 -5 -23 -5 -23 7 -7 13 16 14 16 30 -7 9 -14 16 -30 16 -36 0 -5 12 -10 26
-10 30 0 67 18 60 29 -3 4 1 8 9 8 12 0 12 -3 3 -15 -10 -11 -7 -18 12 -32 14
-10 29 -16 35 -13 5 3 5 0 -2 -7 -9 -10 -15 -10 -28 4 -18 18 -45 22 -45 6 0
-5 6 -10 13 -10 6 0 -3 -9 -20 -20 -18 -11 -33 -25 -33 -30 0 -6 5 -8 10 -5
15 9 12 -11 -3 -27 -17 -16 -18 -30 -6 -45 7 -7 6 -14 -1 -18 -5 -3 -10 -18
-11 -33 -1 -27 -1 -27 -8 -3 -13 49 -26 30 -26 -39 0 -51 -4 -73 -15 -80 -13
-8 -12 -10 1 -15 21 -8 21 -45 1 -70 -17 -20 -17 -20 6 -1 12 11 22 27 22 38
0 10 4 18 9 18 15 0 26 -23 22 -45 -2 -12 8 -28 25 -42 25 -20 27 -25 17 -42
-8 -13 -9 -22 -3 -26 11 -7 4 -25 -10 -25 -5 0 -16 18 -26 39 -15 33 -19 37
-31 26 -12 -12 -11 -17 6 -34 11 -11 22 -17 25 -14 3 4 6 2 6 -4 0 -6 -7 -13
-14 -16 -12 -5 -11 -13 7 -46 20 -37 23 -39 40 -24 14 14 20 14 30 3 9 -10 9
-11 0 -6 -20 11 -16 -35 7 -69 14 -22 16 -32 8 -43 -6 -7 -7 -12 -2 -10 5 2
11 -1 12 -7 13 -37 53 -48 45 -12 -3 16 -2 18 5 8 8 -11 10 -11 15 0 3 8 4 4
4 -8 -1 -12 -7 -25 -14 -27 -7 -3 -13 -10 -13 -16 0 -11 28 -9 48 3 14 10 27
-16 17 -33 -5 -8 -13 -6 -26 6 -15 13 -19 14 -20 3 0 -8 -2 -22 -4 -32 -2 -9
0 -15 5 -12 4 3 10 -2 14 -10 3 -8 10 -15 16 -15 6 0 9 4 6 9 -3 5 0 11 8 14
21 8 28 -21 8 -33 -16 -9 -15 -12 7 -30 12 -11 27 -17 32 -14 5 3 9 -2 9 -11
0 -8 7 -18 15 -21 8 -4 15 -14 15 -24 0 -10 7 -20 15 -24 13 -5 14 -2 4 15 -7
14 -7 19 0 15 5 -4 22 -4 36 0 20 5 23 9 13 15 -19 13 -30 11 -23 -3 4 -7 -1
-4 -9 6 -21 26 -14 31 21 13 30 -16 45 -67 20 -67 -6 -1 -1 -7 13 -15 l25 -14
-25 -1 c-18 0 -21 -3 -12 -9 8 -4 13 -11 13 -15 -1 -3 4 -15 11 -26 14 -22 38
-26 54 -10 8 8 15 5 25 -7 13 -16 12 -17 -3 -5 -9 7 -19 9 -22 4 -7 -12 -1
-47 10 -48 20 -2 43 -17 49 -32 5 -14 4 -14 -13 1 -10 9 -23 17 -28 17 -5 0
-1 -5 9 -11 9 -6 15 -14 12 -20 -4 -5 1 -10 9 -10 35 -3 41 -5 39 -17 -2 -7 4
-9 14 -5 11 4 14 3 9 -5 -8 -13 52 -44 68 -35 4 3 11 1 15 -4 3 -5 35 -26 71
-46 36 -20 60 -37 54 -37 -6 0 -11 -7 -11 -15 0 -8 4 -12 9 -9 4 3 8 0 8 -5 0
-6 8 -11 18 -11 13 0 14 -2 3 -9 -9 -6 0 -13 32 -24 25 -8 48 -13 51 -10 3 3
13 0 22 -8 9 -7 22 -14 30 -16 8 -2 22 -5 32 -7 9 -3 23 -5 30 -5 6 -1 12 -5
12 -9 0 -5 -20 -6 -45 -2 -28 4 -42 3 -37 -2 5 -5 16 -11 23 -12 8 -2 27 -8
42 -14 16 -7 33 -12 38 -12 5 0 9 -4 9 -10 0 -16 -17 -12 -144 31 -670 227
-1150 809 -1241 1506 -26 194 -14 510 24 641 l10 32 -1715 0 -1714 0 0 -1239z
m3677 1107 c-3 -7 -5 -2 -5 12 0 14 2 19 5 13 2 -7 2 -19 0 -25z m-13 -14 c3
-8 2 -12 -4 -9 -6 3 -10 10 -10 16 0 14 7 11 14 -7z m-1464 -34 c0 -5 -4 -10
-10 -10 -5 0 -10 5 -10 10 0 6 5 10 10 10 6 0 10 -4 10 -10z m-1160 -650 c0
-5 -2 -10 -4 -10 -3 0 -8 5 -11 10 -3 6 -1 10 4 10 6 0 11 -4 11 -10z m2735
-30 c3 -5 1 -10 -4 -10 -6 0 -11 5 -11 10 0 6 2 10 4 10 3 0 8 -4 11 -10z m35
-162 c0 -6 -7 -5 -15 2 -9 7 -13 15 -10 18 3 3 1 10 -3 17 -4 6 1 2 11 -8 9
-11 17 -24 17 -29z m51 19 c-10 -9 -11 -8 -5 6 3 10 9 15 12 12 3 -3 0 -11 -7
-18z m4 -27 c3 -5 1 -10 -4 -10 -6 0 -11 5 -11 10 0 6 2 10 4 10 3 0 8 -4 11
-10z m72 -35 c-4 -8 -11 -15 -17 -15 -7 0 -7 6 0 21 13 23 26 19 17 -6z m-84
-35 c4 0 6 4 3 9 -4 5 3 7 14 4 11 -3 20 -9 20 -14 0 -5 -7 -6 -15 -3 -9 4
-15 0 -15 -8 0 -8 -6 -15 -14 -15 -8 0 -15 3 -14 6 0 3 0 13 -1 21 -1 13 -2
13 -11 0 -5 -8 -10 -10 -10 -4 0 17 13 25 24 14 5 -5 14 -10 19 -10z m-3073
-49 l45 -8 -45 -2 c-25 0 -57 -9 -70 -18 -14 -10 -29 -18 -35 -18 -5 -1 -17
-4 -25 -7 -40 -14 -88 -28 -99 -28 -7 0 -26 -9 -42 -21 -16 -11 -29 -18 -29
-16 0 3 -16 -11 -35 -30 -19 -19 -35 -39 -35 -44 0 -5 -7 -9 -17 -9 -9 0 -13
-3 -10 -6 3 -4 1 -16 -6 -28 -6 -11 -12 -28 -12 -36 -2 -41 -19 -90 -31 -90
-8 0 -11 -6 -8 -15 4 -9 0 -15 -10 -15 -9 0 -16 -6 -17 -12 0 -7 -2 -23 -5
-36 -3 -17 -1 -21 8 -16 12 8 -3 -16 -28 -43 -15 -16 0 -131 26 -185 29 -63
43 -113 26 -99 -24 20 -66 117 -81 186 -19 89 -19 146 0 218 49 188 196 332
379 372 71 16 95 16 156 6z m3087 -86 c0 -8 -4 -12 -9 -9 -5 3 -6 10 -3 15 9
13 12 11 12 -6z m115 -129 c3 3 9 1 12 -5 10 -16 -36 -3 -53 15 -15 15 -14 15
10 0 14 -9 28 -14 31 -10z m-95 -8 c-3 -8 -6 -5 -6 6 -1 11 2 17 5 13 3 -3 4
-12 1 -19z m193 -49 c0 -8 -47 -5 -55 3 -3 3 9 5 25 5 17 0 30 -4 30 -8z m64
3 c-5 -4 -12 -11 -15 -15 -3 -5 -9 -2 -12 5 -3 9 3 14 15 15 11 1 16 -1 12 -5z
m-109 -152 c3 -6 -1 -7 -9 -4 -18 7 -21 14 -7 14 6 0 13 -4 16 -10z m145 5 c0
-2 -13 -11 -30 -20 -27 -14 -30 -14 -30 0 0 9 4 14 9 10 5 -3 12 -1 16 5 6 10
35 14 35 5z m50 -52 c13 -4 12 -6 -3 -14 -9 -6 -15 -14 -12 -20 4 -5 -4 -9
-17 -9 -20 1 -21 2 -5 11 21 12 22 29 3 29 -8 0 -17 4 -20 9 -6 8 18 6 54 -6z
m-50 -79 c0 -2 -8 0 -19 5 -10 6 -22 7 -26 3 -5 -4 -5 -1 -1 6 5 9 12 9 27 2
10 -6 19 -13 19 -16z m79 -15 c-22 -13 -31 -11 -17 5 7 8 17 12 22 9 4 -3 2
-9 -5 -14z m-81 -34 c-3 -3 -9 2 -12 12 -6 14 -5 15 5 6 7 -7 10 -15 7 -18z
m119 -120 c0 -8 -4 -12 -9 -9 -5 3 -6 10 -3 15 9 13 12 11 12 -6z m40 -40 c0
-8 -4 -15 -9 -15 -10 0 -11 14 -1 23 9 10 10 9 10 -8z m-2787 -105 c0 -5 -4
-10 -10 -10 -5 0 -10 5 -10 10 0 6 5 10 10 10 6 0 10 -4 10 -10z m1197 -488
c23 -42 52 -93 64 -112 l21 -35 -32 35 c-42 46 -120 161 -120 177 0 33 29 5
67 -65z m211 -194 c16 -35 41 -83 57 -108 55 -86 85 -141 75 -135 -17 10 -190
275 -190 290 0 37 32 10 58 -47z m1600 -469 c-2 -6 -8 -10 -13 -10 -5 0 -11 4
-13 10 -2 6 4 11 13 11 9 0 15 -5 13 -11z m277 -19 c3 -5 -1 -10 -10 -10 -9 0
-13 5 -10 10 3 6 8 10 10 10 2 0 7 -4 10 -10z m-515 -24 c0 -3 -4 -8 -10 -11
-5 -3 -10 -1 -10 4 0 6 5 11 10 11 6 0 10 -2 10 -4z m210 -6 c0 -5 -4 -10 -10
-10 -5 0 -10 5 -10 10 0 6 5 10 10 10 6 0 10 -4 10 -10z"/>
<path d="M3627 5051 c-4 -17 -3 -21 5 -13 5 5 8 16 6 23 -3 8 -7 3 -11 -10z"/>
<path d="M3582 4895 c0 -16 2 -22 5 -12 2 9 2 23 0 30 -3 6 -5 -1 -5 -18z"/>
<path d="M3581 4670 c-1 -3 6 -23 14 -45 8 -22 14 -31 14 -20 0 17 -28 80 -28
65z"/>
<path d="M3685 4350 c3 -5 8 -10 11 -10 2 0 4 5 4 10 0 6 -5 10 -11 10 -5 0
-7 -4 -4 -10z"/>
<path d="M3721 4340 c0 -8 4 -24 9 -35 5 -13 9 -14 9 -5 0 8 -4 24 -9 35 -5
13 -9 14 -9 5z"/>
<path d="M3775 4000 c3 -5 8 -10 11 -10 2 0 4 5 4 10 0 6 -5 10 -11 10 -5 0
-7 -4 -4 -10z"/>
<path d="M495 2310 c4 -6 -1 -13 -9 -16 -9 -3 -13 -10 -10 -15 7 -12 4 -11
-35 2 -34 12 -86 4 -76 -11 9 -15 -11 -12 -24 3 -6 8 -7 18 -3 22 4 5 2 5 -5
1 -6 -3 -14 -2 -17 3 -7 10 -66 -9 -66 -21 0 -4 -6 -8 -14 -8 -22 0 -41 -29
-28 -42 14 -14 16 -38 2 -38 -5 0 -7 6 -4 14 3 8 1 17 -5 21 -6 3 -11 -1 -11
-10 0 -9 -4 -14 -9 -11 -10 6 -53 -28 -45 -36 3 -3 -2 -8 -10 -11 -15 -6 -16
9 -2 31 4 7 5 16 2 19 -3 3 4 13 16 23 23 18 33 50 16 50 -6 0 -8 -6 -5 -13 5
-14 -18 -39 -27 -29 -4 3 -13 7 -21 8 -12 2 -14 -6 -11 -32 2 -19 -1 -37 -5
-40 -5 -3 -9 2 -9 11 0 9 -6 15 -12 12 -7 -2 -19 5 -26 17 -13 21 -13 21 -7
-2 4 -13 1 -29 -5 -37 -6 -8 -8 -20 -4 -27 6 -10 3 -9 -9 1 -16 13 -17 -4 -17
-258 0 -189 3 -271 11 -271 6 0 13 9 16 20 3 11 9 21 14 21 5 1 15 2 22 3 6 1
16 0 21 -3 6 -2 28 -4 50 -2 23 1 58 3 79 3 20 1 37 5 37 11 0 6 4 6 13 0 15
-13 47 -13 47 -1 0 5 29 7 66 4 36 -4 71 -3 77 1 26 16 37 12 26 -9 -10 -19
-8 -20 33 -16 26 2 50 10 61 22 9 10 17 15 17 10 0 -5 13 -9 29 -9 19 0 27 4
24 13 -3 6 0 12 6 12 6 0 11 -4 11 -10 0 -5 5 -10 11 -10 5 0 7 5 3 12 -5 8
-2 9 10 5 10 -4 28 -7 41 -7 14 0 26 -7 29 -17 3 -10 4 -6 2 8 -2 21 1 25 16
21 10 -2 16 -8 13 -12 -7 -11 61 0 82 13 9 6 11 3 7 -7 -4 -11 6 -9 41 9 25
14 48 25 51 25 2 0 1 -12 -2 -27 -7 -26 -6 -27 9 -11 9 9 17 21 17 27 0 6 5
11 10 11 6 0 10 -5 10 -11 0 -5 4 -8 9 -5 5 3 11 0 14 -8 6 -16 35 -15 45 1 4
5 17 9 30 8 13 -1 25 3 29 8 3 6 8 6 12 0 3 -6 21 -13 40 -16 27 -6 32 -4 27
8 -4 13 -2 13 14 5 16 -9 18 -8 14 5 -6 14 11 21 39 16 4 0 7 4 7 9 0 7 7 7
18 2 9 -5 24 -8 32 -7 8 1 24 3 35 3 18 2 17 5 -10 30 -16 15 -32 26 -36 25
-3 -1 -6 5 -6 13 0 19 4 18 40 -12 18 -16 33 -22 35 -15 2 7 14 4 32 -9 15
-11 40 -20 54 -20 14 0 26 -6 26 -12 1 -8 6 -6 14 5 8 10 16 14 17 9 3 -6 13
-6 27 -1 18 7 22 14 17 29 -5 16 -2 20 14 20 12 0 21 5 21 11 0 6 -7 8 -16 5
-15 -6 -15 -4 -3 11 9 11 10 14 2 9 -7 -4 -13 -2 -13 3 0 6 0 14 0 19 0 10 63
10 77 -1 7 -5 27 -11 45 -14 39 -6 47 -11 31 -21 -7 -4 5 -8 27 -9 22 -1 42 2
45 8 9 14 36 11 57 -8 10 -9 21 -14 24 -10 10 10 -25 52 -44 52 -9 0 -16 6
-15 13 2 6 -3 12 -10 12 -6 0 -23 10 -37 21 -21 17 -22 19 -3 10 28 -14 36
-14 27 0 -4 7 -1 10 7 7 8 -3 13 -10 12 -15 -2 -10 32 -11 42 -1 8 8 -55 29
-66 22 -5 -3 -9 0 -9 6 0 6 -4 8 -10 5 -5 -3 -10 -2 -10 3 0 6 -7 13 -16 16
-8 3 -13 2 -10 -3 3 -5 -3 -11 -15 -14 -16 -4 -18 -3 -9 8 8 9 6 14 -6 19 -21
8 -24 8 -24 -5 0 -5 5 -7 12 -3 7 5 8 3 3 -5 -4 -8 -17 -10 -32 -6 -16 4 -22
2 -18 -5 3 -5 2 -10 -3 -10 -6 0 -13 7 -16 16 -3 8 -10 12 -16 9 -5 -3 -10 0
-10 8 0 8 -12 14 -30 15 -16 1 -36 3 -44 4 -19 2 -8 28 13 29 10 0 11 2 4 6
-7 2 -13 12 -13 20 0 12 -3 13 -13 4 -8 -6 -30 -8 -53 -5 -21 4 -47 6 -57 6
-9 -1 -15 3 -12 8 6 10 -75 31 -122 33 -18 0 -33 4 -33 7 0 4 -6 7 -12 8 -7 0
-35 3 -63 6 -27 2 -42 2 -32 0 9 -3 17 -12 17 -19 0 -15 -26 -14 -84 1 -21 5
-27 4 -22 -5 4 -6 3 -11 -3 -11 -5 0 -12 4 -15 9 -3 4 -17 7 -31 6 -14 -2 -28
2 -32 7 -4 7 -1 8 7 3 9 -5 11 -4 6 4 -6 9 -11 9 -24 -1 -10 -9 -13 -9 -9 -1
5 8 0 11 -13 10 -11 -1 -20 -7 -20 -14 0 -7 -5 -13 -11 -13 -5 0 -8 4 -5 8 5
9 -123 6 -132 -2 -2 -3 -15 -1 -28 4 -15 6 -24 6 -24 0 0 -6 -7 -10 -15 -10
-26 0 -16 18 13 24 21 5 27 13 29 34 1 25 0 25 -12 8 -8 -10 -19 -15 -25 -11
-6 4 -9 1 -8 -7 2 -7 -6 -13 -17 -14 -28 -1 -40 7 -25 16 7 4 9 13 6 19 -9 14
-36 15 -36 1 0 -5 -9 -10 -20 -10 -13 0 -18 5 -14 15 5 11 2 13 -9 9 -9 -3
-14 -11 -11 -17 3 -8 -7 -12 -26 -12 -21 0 -30 5 -30 17 0 22 16 31 59 32 29
1 36 5 37 21 2 37 5 40 19 21 8 -11 16 -18 16 -15 10 39 5 56 -19 67 -15 6
-42 14 -60 17 -17 3 -46 7 -62 10 -19 3 -29 1 -25 -5z m-57 -66 c12 -8 25 -13
30 -11 4 3 7 -8 7 -24 0 -18 -5 -29 -14 -29 -7 0 -11 6 -8 13 3 8 -7 21 -24
31 -20 12 -29 13 -29 5 0 -7 -3 -10 -6 -6 -3 3 -14 -3 -25 -14 -10 -10 -25
-19 -31 -19 -7 0 -5 5 5 11 9 5 17 16 17 22 0 35 42 47 78 21z m79 -70 c-3 -3
-12 -4 -19 -1 -8 3 -5 6 6 6 11 1 17 -2 13 -5z m138 -54 c3 -5 1 -10 -4 -10
-6 0 -11 5 -11 10 0 6 2 10 4 10 3 0 8 -4 11 -10z m1065 -251 c0 -4 -7 -6 -15
-3 -8 4 -15 10 -15 15 0 4 7 6 15 3 8 -4 15 -10 15 -15z m60 -4 c0 -2 -9 -3
-19 -2 -11 0 -18 5 -15 9 4 6 34 0 34 -7z m5 -25 c3 -5 1 -10 -4 -10 -6 0 -11
5 -11 10 0 6 2 10 4 10 3 0 8 -4 11 -10z m-610 -110 c3 -5 1 -10 -4 -10 -6 0
-11 5 -11 10 0 6 2 10 4 10 3 0 8 -4 11 -10z"/>
<path d="M685 2280 c3 -5 8 -10 11 -10 2 0 4 5 4 10 0 6 -5 10 -11 10 -5 0 -7
-4 -4 -10z"/>
<path d="M665 2190 c-3 -5 -1 -10 4 -10 6 0 11 5 11 10 0 6 -2 10 -4 10 -3 0
-8 -4 -11 -10z"/>
<path d="M704 2191 c7 -10 31 -9 42 2 4 4 -5 7 -20 7 -15 0 -25 -4 -22 -9z"/>
<path d="M808 2173 c7 -3 16 -2 19 1 4 3 -2 6 -13 5 -11 0 -14 -3 -6 -6z"/>
<path d="M810 2142 c-41 -6 -45 -20 -5 -16 20 1 39 5 42 7 8 9 -11 13 -37 9z"/>
<path d="M1118 2133 c7 -3 16 -2 19 1 4 3 -2 6 -13 5 -11 0 -14 -3 -6 -6z"/>
<path d="M1910 1954 c0 -14 36 -33 62 -34 15 0 39 -5 54 -10 44 -17 38 -4 -8
19 -24 12 -44 17 -46 11 -2 -5 -10 -3 -19 5 -14 15 -43 21 -43 9z"/>
<path d="M1890 1890 c19 -13 30 -13 30 0 0 6 -10 10 -22 10 -19 0 -20 -2 -8
-10z"/>
<path d="M1970 1876 c0 -2 8 -10 18 -17 15 -13 16 -12 3 4 -13 16 -21 21 -21
13z"/>
<path d="M1956 1845 c10 -8 24 -14 29 -14 6 0 1 6 -9 14 -11 8 -24 15 -30 15
-5 0 -1 -7 10 -15z"/>
<path d="M1900 1836 c6 -8 19 -12 27 -9 10 4 14 2 10 -4 -4 -6 0 -13 8 -17 8
-3 17 -1 20 3 8 13 -23 34 -40 27 -8 -3 -15 -1 -15 4 0 6 -5 10 -11 10 -8 0
-8 -4 1 -14z"/>
<path d="M1816 1815 c-3 -8 -1 -15 4 -15 13 0 22 18 11 24 -5 3 -11 -1 -15 -9z"/>
<path d="M1635 1800 c-3 -5 1 -13 10 -16 22 -9 29 1 11 15 -10 8 -16 9 -21 1z"/>
<path d="M2356 873 c13 -10 14 -13 4 -13 -12 0 -12 -2 1 -15 21 -21 142 3 147
30 4 16 2 16 -19 1 -30 -20 -53 -21 -45 -1 3 9 0 15 -10 15 -9 0 -12 -5 -8
-12 5 -7 3 -8 -7 -3 -7 5 -28 9 -47 10 -29 1 -31 -1 -16 -12z"/>
<path d="M2580 859 c0 -18 2 -19 15 -5 8 8 15 17 15 20 0 3 -7 6 -15 6 -9 0
-15 -9 -15 -21z"/>
<path d="M2305 840 c-3 -5 1 -10 9 -10 8 0 18 5 21 10 3 6 -1 10 -9 10 -8 0
-18 -4 -21 -10z"/>
<path d="M2918 823 c7 -3 16 -2 19 1 4 3 -2 6 -13 5 -11 0 -14 -3 -6 -6z"/>
<path d="M468 798 c-29 -10 -37 -31 -16 -44 7 -4 8 -3 4 4 -7 11 16 18 39 12
6 -2 20 -2 33 -1 14 0 21 -3 16 -10 -5 -8 -1 -8 14 0 11 6 28 8 38 4 11 -4 15
-2 12 7 -4 14 -52 24 -75 16 -20 -8 -28 -7 -28 3 0 16 -9 18 -37 9z"/>
<path d="M620 780 c0 -5 5 -10 11 -10 5 0 7 5 4 10 -3 6 -8 10 -11 10 -2 0 -4
-4 -4 -10z"/>
<path d="M470 736 c0 -2 9 -6 20 -9 11 -3 18 -1 14 4 -5 9 -34 13 -34 5z"/>
<path d="M442 691 c-11 -7 -10 -10 3 -15 25 -9 32 -7 15 5 -12 9 -11 10 8 6
12 -3 22 -1 22 4 0 11 -31 11 -48 0z"/>
<path d="M508 693 c7 -3 16 -2 19 1 4 3 -2 6 -13 5 -11 0 -14 -3 -6 -6z"/>
<path d="M1774 656 c-17 -6 -32 -14 -32 -18 -3 -11 2 -10 50 12 46 20 33 25
-18 6z"/>
<path d="M794 645 c-10 -8 -14 -15 -8 -15 5 0 19 7 30 15 10 8 14 15 8 15 -5
0 -19 -7 -30 -15z"/>
<path d="M1367 643 c7 -18 30 -16 37 2 4 11 -1 14 -18 13 -15 -1 -22 -7 -19
-15z"/>
<path d="M603 642 c-36 -6 -27 -18 22 -29 24 -5 42 -7 40 -2 -8 13 16 22 27
11 8 -8 17 -8 31 -1 14 8 18 8 13 0 -4 -6 0 -11 9 -11 32 0 8 25 -26 27 -19 0
-47 3 -64 5 -16 2 -40 2 -52 0z"/>
<path d="M1327 643 c-9 -3 -15 -8 -12 -13 3 -5 12 -7 19 -4 8 3 17 0 22 -7 4
-7 3 -10 -3 -6 -6 4 -13 -3 -16 -14 -5 -20 -3 -21 39 -16 52 5 77 22 39 25
-13 1 -27 -3 -30 -8 -9 -15 -25 -12 -19 3 7 18 -18 44 -39 40z"/>
<path d="M1276 622 c-3 -5 -19 -12 -36 -16 -30 -5 -34 -26 -6 -26 18 0 63 37
55 45 -4 3 -10 2 -13 -3z"/>
<path d="M474 609 c-3 -6 -15 -7 -27 -4 -19 4 -19 3 2 -7 18 -9 25 -10 28 -1
2 6 14 8 26 5 12 -3 18 -1 14 3 -11 13 -36 15 -43 4z"/>
<path d="M1065 600 c-3 -5 3 -10 15 -10 12 0 18 5 15 10 -3 6 -10 10 -15 10
-5 0 -12 -4 -15 -10z"/>
<path d="M1121 601 c-8 -5 5 -9 35 -9 36 0 44 2 29 8 -26 11 -47 12 -64 1z"/>
<path d="M1725 600 c-4 -6 7 -10 27 -9 27 0 30 2 13 9 -27 12 -33 12 -40 0z"/>
<path d="M1025 591 c-6 -11 9 -23 19 -14 9 9 7 23 -3 23 -6 0 -12 -4 -16 -9z"/>
<path d="M1068 563 c7 -3 16 -2 19 1 4 3 -2 6 -13 5 -11 0 -14 -3 -6 -6z"/>
<path d="M1195 560 c4 -6 11 -8 16 -5 14 9 11 15 -7 15 -8 0 -12 -5 -9 -10z"/>
<path d="M4285 550 c3 -5 22 -10 41 -10 21 0 33 4 29 10 -3 6 -22 10 -41 10
-21 0 -33 -4 -29 -10z"/>
<path d="M4385 533 c9 -18 14 -37 10 -43 -3 -5 -1 -10 4 -10 6 0 11 4 11 9 0
5 6 9 13 8 40 -1 51 3 39 15 -10 10 -15 10 -22 -2 -6 -9 -10 -10 -10 -3 0 6
-8 14 -17 16 -16 4 -16 5 -2 6 9 0 19 8 22 16 5 11 1 12 -17 5 -16 -6 -27 -5
-35 3 -7 7 -5 -3 4 -20z"/>
<path d="M1148 543 c7 -3 16 -2 19 1 4 3 -2 6 -13 5 -11 0 -14 -3 -6 -6z"/>
<path d="M2050 544 c-8 -3 -22 -8 -30 -11 -8 -4 -19 -7 -24 -7 -5 -1 -11 -7
-14 -15 -3 -10 1 -12 19 -8 13 4 35 7 49 7 20 0 22 2 10 10 -8 5 -10 10 -5 10
6 0 15 -4 22 -8 20 -13 -2 -33 -51 -45 -45 -12 -46 -13 -31 -33 13 -19 19 -21
60 -13 26 5 51 11 56 14 5 4 9 3 9 0 0 -3 -15 -12 -32 -20 l-33 -14 42 -1 c23
0 45 5 48 10 3 6 11 10 18 10 6 0 2 -7 -9 -16 -19 -15 -18 -15 3 -11 13 3 26
1 29 -4 3 -5 2 -9 -3 -10 -4 0 -19 -3 -33 -7 -14 -3 -46 -6 -72 -6 -42 -1 -45
-3 -36 -19 5 -10 25 -25 43 -33 43 -18 68 -18 36 0 l-24 13 27 7 c15 4 31 4
36 1 6 -4 10 -2 10 3 0 10 82 42 107 42 8 0 11 -4 8 -10 -3 -5 1 -10 9 -10 9
0 16 6 16 14 0 11 -14 14 -55 12 -38 -1 -56 3 -60 12 -6 17 3 34 16 27 5 -3 6
1 3 9 -4 11 0 13 16 9 12 -3 31 -1 43 5 32 16 87 20 87 8 0 -6 5 -4 10 4 6 10
10 11 10 3 0 -7 8 -13 18 -13 14 0 15 -2 2 -10 -8 -5 -10 -10 -4 -10 14 0 36
25 29 34 -3 3 1 2 7 -4 18 -15 38 -12 38 5 0 21 -21 26 -160 37 -52 4 -150 -4
-150 -12 0 -5 10 -10 23 -10 12 0 29 -5 37 -10 11 -7 5 -8 -20 -3 -19 3 -46
18 -60 34 -26 28 -63 42 -90 33z m80 -58 c-7 -7 -13 -7 -20 0 -6 6 -3 10 10
10 13 0 16 -4 10 -10z m167 8 c-3 -3 -12 -4 -19 -1 -8 3 -5 6 6 6 11 1 17 -2
13 -5z"/>
<path d="M2763 528 c2 -7 12 -13 22 -13 10 0 20 6 23 13 2 7 -6 12 -23 12 -17
0 -25 -5 -22 -12z"/>
<path d="M1160 525 c0 -2 9 -9 20 -15 16 -9 20 -8 20 5 0 8 -9 15 -20 15 -11
0 -20 -2 -20 -5z"/>
<path d="M1215 520 c-3 -5 -2 -10 4 -10 5 0 13 5 16 10 3 6 2 10 -4 10 -5 0
-13 -4 -16 -10z"/>
<path d="M692 509 c-15 -5 -20 -13 -16 -21 6 -9 9 -9 12 0 6 19 32 14 53 -10
26 -32 24 -38 -12 -38 -30 0 -99 -34 -99 -49 0 -10 83 0 98 12 8 7 16 7 20 1
4 -5 13 -9 20 -10 48 -4 47 -3 27 -17 -36 -27 3 -27 50 0 42 23 52 25 87 16
26 -7 40 -7 45 0 3 6 1 7 -5 3 -7 -4 -12 -3 -12 2 0 6 -20 12 -44 13 -25 2
-42 0 -38 -5 3 -5 -2 -6 -12 -3 -10 4 -27 7 -39 7 -19 0 -17 3 11 22 l34 21
-32 14 c-18 7 -39 13 -48 13 -8 0 -20 6 -26 14 -16 20 -47 26 -74 15z"/>
<path d="M630 500 c0 -5 7 -10 16 -10 8 0 12 5 9 10 -3 6 -10 10 -16 10 -5 0
-9 -4 -9 -10z"/>
<path d="M1380 489 c0 -6 -6 -9 -12 -6 -7 2 -22 1 -33 -4 -15 -6 -9 -8 22 -8
43 -1 65 12 38 23 -8 3 -15 1 -15 -5z"/>
<path d="M1285 480 c3 -5 11 -10 16 -10 6 0 7 5 4 10 -3 6 -11 10 -16 10 -6 0
-7 -4 -4 -10z"/>
<path d="M1192 445 c-28 -32 -28 -49 -1 -42 24 6 71 -12 63 -24 -6 -10 27 -12
50 -3 8 3 12 12 9 21 -4 11 -2 14 8 11 16 -6 51 30 43 43 -3 5 -22 8 -42 8
l-37 -1 30 -8 c23 -6 25 -8 8 -9 -12 0 -23 -6 -25 -12 -3 -8 -13 -9 -28 -4
-23 7 -23 8 -5 21 14 10 15 14 4 14 -8 0 -23 3 -34 6 -14 3 -28 -3 -43 -21z
m45 0 c0 -8 -4 -12 -9 -9 -5 3 -6 10 -3 15 9 13 12 11 12 -6z"/>
<path d="M3066 457 c3 -10 9 -15 12 -12 3 3 0 11 -7 18 -10 9 -11 8 -5 -6z"/>
<path d="M3998 463 c7 -3 16 -2 19 1 4 3 -2 6 -13 5 -11 0 -14 -3 -6 -6z"/>
<path d="M4035 421 c-3 -12 -10 -19 -14 -16 -5 2 -16 -4 -26 -15 -10 -11 -14
-20 -9 -20 5 0 3 -4 -4 -9 -11 -6 -10 -12 4 -26 17 -16 17 -18 1 -30 -9 -6
-14 -15 -10 -18 3 -4 1 -7 -6 -7 -8 0 -11 8 -8 20 3 13 -1 24 -14 30 -17 9
-19 7 -19 -18 0 -15 5 -33 12 -40 8 -8 5 -13 -13 -20 -13 -5 -31 -12 -39 -15
-8 -3 4 -6 28 -6 41 -1 56 -16 27 -27 -14 -6 -14 -8 1 -19 12 -8 29 -9 58 -3
23 5 48 10 56 12 8 2 22 6 30 9 8 3 36 8 61 11 41 5 48 3 52 -14 3 -11 14 -20
24 -20 10 0 28 -7 40 -15 11 -8 35 -16 53 -17 17 -1 34 -6 37 -11 2 -4 10 -4
16 1 14 11 47 12 47 1 0 -7 65 -24 87 -22 8 0 7 -7 -4 -24 l-16 -24 29 14 c72
36 108 52 113 52 3 1 16 6 29 13 12 7 27 10 32 7 6 -3 10 1 10 9 0 9 12 19 26
22 17 4 22 9 14 14 -7 5 -1 9 17 12 34 5 55 0 48 -12 -3 -4 2 -13 10 -20 13
-11 14 -10 10 3 -8 20 25 18 42 -3 11 -13 12 -13 13 -1 0 12 3 12 12 3 7 -7
22 -12 33 -12 22 0 55 -28 55 -47 0 -9 17 -18 56 -28 6 -2 18 1 25 6 12 7 12
10 0 21 -11 10 -14 10 -18 1 -3 -7 -11 -13 -19 -13 -9 0 -12 4 -9 10 3 6 -1 7
-12 4 -17 -5 -17 -5 0 6 18 12 24 40 7 40 -5 0 -10 9 -10 20 0 18 -4 20 -35
14 -22 -4 -41 -2 -50 6 -8 7 -26 10 -40 6 -15 -4 -25 -2 -25 4 0 6 4 8 10 5 6
-4 7 1 3 11 -6 16 -8 15 -16 -4 -6 -12 -17 -22 -26 -22 -14 0 -14 2 -1 10 8 5
11 10 5 10 -5 0 -4 4 3 9 18 11 -85 23 -107 12 -9 -4 -27 -5 -41 -1 -18 4 -29
0 -42 -14 -16 -20 -16 -21 -37 -2 -12 11 -21 25 -21 31 0 16 -48 26 -54 11 -3
-7 -5 -7 -5 1 -1 7 -8 10 -18 6 -13 -4 -15 -3 -7 6 13 14 57 24 49 10 -4 -5 5
-9 19 -9 19 0 26 -5 26 -20 0 -10 8 -23 17 -29 14 -7 19 -3 30 27 15 44 16 52
4 52 -5 0 -12 -8 -14 -18 -4 -13 -5 -14 -6 -1 -2 29 -42 42 -87 27 -24 -9 -52
-11 -74 -7 -21 5 -37 3 -41 -3 -4 -6 -12 -7 -20 -2 -17 10 -68 12 -96 3 -15
-6 -23 -3 -27 7 -4 11 -10 12 -25 4 -37 -19 -67 10 -39 38 9 9 4 12 -24 12
-20 0 -39 -4 -42 -9 -3 -4 -17 -7 -31 -6 -14 2 -27 -1 -31 -6 -7 -12 -51 -12
-59 0 -3 5 3 12 14 16 26 8 32 27 16 49 -12 16 -14 16 -20 -3z m49 -120 c3 -5
0 -13 -7 -19 -10 -8 -13 -6 -13 9 0 20 11 25 20 10z m321 -1 c7 -12 -2 -12
-30 0 -19 8 -19 9 2 9 12 1 25 -3 28 -9z m-275 -13 c-9 -7 -14 -19 -12 -28 1
-9 -4 -16 -12 -16 -8 0 -12 7 -9 16 6 16 32 41 42 41 3 0 -1 -6 -9 -13z m350
9 c0 -3 -4 -8 -10 -11 -5 -3 -10 -1 -10 4 0 6 5 11 10 11 6 0 10 -2 10 -4z
m290 -56 c0 -5 -5 -10 -11 -10 -5 0 -7 5 -4 10 3 6 8 10 11 10 2 0 4 -4 4 -10z
m40 -10 c0 -5 -4 -10 -10 -10 -5 0 -10 5 -10 10 0 6 5 10 10 10 6 0 10 -4 10
-10z m-80 -10 c-19 -13 -30 -13 -30 0 0 6 10 10 23 10 18 0 19 -2 7 -10z
m-210 -20 c0 -5 -5 -10 -11 -10 -5 0 -7 5 -4 10 3 6 8 10 11 10 2 0 4 -4 4
-10z m30 6 c0 -3 -4 -8 -10 -11 -5 -3 -10 -1 -10 4 0 6 5 11 10 11 6 0 10 -2
10 -4z m120 -2 c0 -8 -19 -13 -24 -6 -3 5 1 9 9 9 8 0 15 -2 15 -3z m315 -23
c3 -5 1 -12 -5 -16 -5 -3 -10 1 -10 9 0 18 6 21 15 7z"/>
<path d="M2526 413 c-4 -9 -4 -14 0 -10 4 4 13 2 21 -5 20 -17 23 -6 3 15 -17
17 -18 17 -24 0z"/>
<path d="M2976 422 c-4 -7 -5 -16 -2 -21 4 -5 -7 -12 -22 -16 -22 -4 -28 -11
-26 -28 1 -12 3 -26 3 -30 1 -4 20 -7 44 -7 23 1 97 -1 164 -5 121 -7 156 -1
175 29 5 8 13 7 28 -1 22 -14 53 -17 63 -6 10 9 -33 53 -51 53 -9 0 -13 -7
-10 -17 4 -15 -2 -18 -28 -18 -17 0 -30 3 -28 7 2 3 -12 12 -32 18 -26 9 -32
15 -23 21 25 15 -38 31 -79 19 -21 -5 -56 -8 -79 -7 -24 1 -43 -1 -43 -6 0
-13 -35 -3 -41 12 -4 11 -8 12 -13 3z m73 -42 c-6 -5 -18 -6 -26 -3 -19 8 -16
11 13 11 17 0 22 -3 13 -8z"/>
<path d="M1126 411 c-3 -5 0 -11 8 -14 15 -6 26 1 26 15 0 11 -27 10 -34 -1z"/>
<path d="M1039 391 c24 -18 24 -19 4 -25 -11 -4 -28 -3 -38 0 -9 4 -20 3 -24
-2 -12 -17 -52 -35 -63 -28 -12 8 -116 7 -176 -2 -32 -5 -46 -12 -52 -28 -4
-12 -15 -28 -24 -35 -25 -21 -19 -37 12 -35 16 1 39 -5 53 -12 l24 -14 -30 6
c-16 3 -37 8 -45 10 -10 4 -12 2 -5 -5 16 -16 95 -26 95 -12 0 7 5 9 10 6 6
-3 10 -1 10 5 0 6 5 8 10 5 6 -3 10 -1 10 5 0 6 5 8 12 4 8 -5 9 -2 5 9 -5 12
-1 17 13 17 11 0 19 6 17 13 -1 8 12 12 40 12 31 0 39 -3 31 -12 -7 -9 -16
-10 -29 -2 -10 5 -19 8 -20 7 -12 -47 7 -54 66 -26 36 18 42 24 30 31 -13 7
-14 12 -4 23 8 10 8 14 0 14 -6 0 -11 4 -11 10 0 5 6 8 13 6 48 -15 49 -16 37
-31 -10 -12 -9 -15 9 -15 11 0 21 5 21 11 0 5 8 9 18 8 9 -1 26 0 37 1 14 1
10 5 -12 11 -35 10 -44 35 -17 46 9 3 25 1 35 -5 25 -16 50 -15 73 3 18 14 16
15 -26 15 -26 0 -59 5 -75 12 -46 18 -60 18 -34 -1z m-6 -48 c-7 -2 -19 -2
-25 0 -7 3 -2 5 12 5 14 0 19 -2 13 -5z m-195 -54 c-6 -4 -16 -5 -22 -2 -5 3
-15 -2 -22 -11 -14 -19 -27 -6 -18 17 3 9 14 14 25 12 10 -2 19 1 19 7 0 6 6
6 15 -2 12 -10 13 -15 3 -21z m-39 -43 c-12 -10 -59 -15 -59 -6 0 5 14 10 32
10 17 0 29 -2 27 -4z"/>
<path d="M2455 390 c-3 -5 1 -10 10 -10 9 0 13 5 10 10 -3 6 -8 10 -10 10 -2
0 -7 -4 -10 -10z"/>
<path d="M3542 382 c-20 -6 -32 -22 -17 -22 3 0 11 0 19 0 8 0 16 7 20 15 3 8
4 15 3 14 -1 -1 -12 -4 -25 -7z"/>
<path d="M2420 360 c0 -11 5 -20 12 -20 6 0 3 -6 -8 -14 -19 -15 -19 -15 1
-11 11 2 23 4 26 4 3 1 4 12 2 25 -6 31 -33 44 -33 16z"/>
<path d="M3615 360 c12 -13 22 -17 28 -11 13 13 -1 31 -25 31 -21 0 -21 -1 -3
-20z"/>
<path d="M840 360 c-12 -8 -11 -10 8 -10 12 0 22 5 22 10 0 13 -11 13 -30 0z"/>
<path d="M1508 363 c7 -3 16 -2 19 1 4 3 -2 6 -13 5 -11 0 -14 -3 -6 -6z"/>
<path d="M2900 362 c0 -5 -12 -7 -26 -4 -19 3 -25 1 -20 -7 5 -8 0 -9 -16 -3
-35 13 -114 -13 -122 -40 -3 -12 -3 -24 -1 -26 2 -3 44 -7 92 -9 48 -3 93 -9
99 -14 7 -6 16 -4 23 5 10 12 9 14 -7 9 -14 -3 -21 2 -25 17 -4 15 -11 21 -21
17 -8 -3 -18 -1 -22 5 -5 7 4 9 25 6 22 -3 30 -1 27 7 -2 7 0 17 6 23 6 6 6
12 -1 16 -6 4 -11 3 -11 -2z"/>
<path d="M488 337 c-30 -12 -37 -27 -14 -27 8 0 17 6 19 13 3 7 6 8 6 1 1 -7
12 -9 26 -6 20 3 23 7 14 18 -13 16 -14 16 -51 1z"/>
<path d="M2184 338 c-9 -15 17 -18 42 -5 l27 14 -32 -1 c-18 0 -35 -4 -37 -8z"/>
<path d="M2485 330 c3 -5 11 -10 16 -10 6 0 7 5 4 10 -3 6 -11 10 -16 10 -6 0
-7 -4 -4 -10z"/>
<path d="M4760 305 c-9 -11 -23 -13 -51 -9 -25 4 -39 3 -39 -4 0 -6 20 -10 50
-9 28 1 50 -1 50 -5 0 -5 4 -8 10 -8 5 0 9 11 8 25 -3 29 -10 31 -28 10z"/>
<path d="M2176 302 c-3 -5 1 -9 9 -9 8 0 15 4 15 9 0 4 -4 8 -9 8 -6 0 -12 -4
-15 -8z"/>
<path d="M4809 293 c-13 -15 -12 -15 11 -3 34 17 36 20 18 20 -9 0 -22 -7 -29
-17z"/>
<path d="M321 287 c-15 -15 -14 -25 5 -29 13 -3 13 -5 0 -23 -12 -16 -17 -18
-28 -7 -11 11 -10 12 7 7 14 -5 13 -2 -5 9 -29 18 -44 20 -35 6 3 -5 -7 -16
-22 -24 -15 -8 -22 -15 -15 -16 8 0 27 -9 43 -21 28 -20 29 -22 12 -35 -16
-12 -16 -13 -1 -14 9 0 20 4 23 10 3 6 15 10 25 10 14 0 18 6 15 21 -4 18 -2
19 13 8 9 -7 18 -14 20 -15 9 -4 -13 -34 -25 -34 -8 0 -11 -5 -8 -11 5 -7 13
-5 25 6 10 9 27 15 37 13 14 -3 11 -7 -14 -21 -18 -10 -33 -24 -33 -32 0 -20
10 -19 27 3 14 16 14 16 9 -1 -10 -31 5 -18 20 18 10 24 22 36 42 40 43 10 92
34 92 46 0 6 -8 8 -20 4 -13 -4 -22 -1 -26 9 -3 9 -15 16 -26 16 -10 0 -16 5
-13 10 3 6 -4 10 -17 10 -18 0 -20 2 -8 10 8 5 29 7 46 4 35 -6 78 11 68 28
-9 14 -177 5 -182 -10 -2 -7 -8 -12 -13 -12 -6 0 -8 4 -5 9 9 14 -20 21 -33 8z
m59 -37 c0 -5 -7 -10 -15 -10 -8 0 -15 5 -15 10 0 6 7 10 15 10 8 0 15 -4 15
-10z m60 -34 c0 -6 -7 -3 -14 6 -7 10 -17 14 -21 10 -5 -4 -5 -1 -1 6 6 10 11
10 22 1 8 -6 14 -17 14 -23z m70 -30 c0 -2 -7 -7 -16 -10 -8 -3 -12 -2 -9 4 6
10 25 14 25 6z m-93 -22 c-3 -3 -12 -4 -19 -1 -8 3 -5 6 6 6 11 1 17 -2 13 -5z"/>
<path d="M4956 278 c-5 -21 5 -23 23 -5 10 10 11 9 6 -5 -5 -13 -2 -18 10 -18
9 0 22 -6 29 -12 14 -15 28 -61 16 -53 -5 3 -11 1 -15 -5 -8 -13 45 -62 62
-56 7 3 13 1 13 -4 0 -6 4 -10 9 -10 5 0 9 27 10 61 0 55 -2 62 -21 67 -21 5
-21 6 -2 13 17 7 17 8 1 8 -12 1 -16 5 -11 14 6 9 5 9 -7 0 -8 -7 -20 -8 -28
-4 -10 6 -5 11 15 18 24 9 18 10 -38 9 -55 0 -68 -4 -72 -18z m74 -3 c0 -2 -7
-5 -15 -9 -9 -3 -15 0 -15 9 0 9 6 12 15 9 8 -4 15 -7 15 -9z m33 -32 c-7 -2
-19 -2 -25 0 -7 3 -2 5 12 5 14 0 19 -2 13 -5z m13 -48 c-3 -20 -16 -31 -16
-13 0 13 8 28 16 28 1 0 1 -7 0 -15z m34 -9 c0 -3 -4 -8 -10 -11 -5 -3 -10 -1
-10 4 0 6 5 11 10 11 6 0 10 -2 10 -4z m-17 -33 c-7 -2 -19 -2 -25 0 -7 3 -2
5 12 5 14 0 19 -2 13 -5z"/>
<path d="M4840 279 c0 -7 50 -19 80 -19 10 0 20 6 23 14 4 11 -6 13 -49 13
-30 -1 -54 -4 -54 -8z"/>
<path d="M228 253 c7 -3 16 -2 19 1 4 3 -2 6 -13 5 -11 0 -14 -3 -6 -6z"/>
<path d="M2364 241 c-12 -13 -1 -21 24 -17 15 2 42 5 60 5 17 1 32 5 32 11 0
9 -106 10 -116 1z"/>
<path d="M605 220 c4 -6 -5 -10 -19 -10 -14 0 -26 -6 -26 -12 0 -9 15 -12 51
-9 49 3 50 4 33 22 -18 19 -50 27 -39 9z"/>
<path d="M840 220 c-18 -12 -2 -12 25 0 13 6 15 9 5 9 -8 0 -22 -4 -30 -9z"/>
<path d="M5015 200 c-3 -5 -1 -10 4 -10 6 0 11 5 11 10 0 6 -2 10 -4 10 -3 0
-8 -4 -11 -10z"/>
<path d="M82 145 c-17 -14 -36 -25 -43 -25 -8 0 -21 -5 -29 -10 -11 -8 -4 -10
25 -8 46 3 84 19 110 48 18 20 17 20 -8 20 -14 0 -39 -11 -55 -25z"/>
<path d="M210 160 c0 -5 5 -10 11 -10 5 0 7 5 4 10 -3 6 -8 10 -11 10 -2 0 -4
-4 -4 -10z"/>
<path d="M2398 153 c7 -3 16 -2 19 1 4 3 -2 6 -13 5 -11 0 -14 -3 -6 -6z"/>
<path d="M2328 133 c7 -3 16 -2 19 1 4 3 -2 6 -13 5 -11 0 -14 -3 -6 -6z"/>
<path d="M4310 126 c0 -2 7 -7 16 -10 8 -3 12 -2 9 4 -6 10 -25 14 -25 6z"/>
<path d="M4446 88 c4 -13 1 -16 -10 -12 -9 3 -16 1 -16 -6 0 -6 4 -9 9 -5 5 3
16 -2 25 -10 9 -9 17 -11 21 -5 3 5 0 10 -7 10 -9 0 -9 3 2 10 12 7 12 10 1
10 -7 0 -11 6 -8 13 3 8 -1 14 -9 14 -9 0 -12 -7 -8 -19z"/>
<path d="M4342 67 c10 -8 15 -17 11 -20 -3 -4 -1 -7 5 -7 11 0 27 19 21 24 -2
2 -15 7 -29 10 -23 6 -23 6 -8 -7z"/>
<path d="M2175 60 c3 -5 8 -10 11 -10 2 0 4 5 4 10 0 6 -5 10 -11 10 -5 0 -7
-4 -4 -10z"/>
<path d="M2128 53 c6 -2 18 -2 25 0 6 3 1 5 -13 5 -14 0 -19 -2 -12 -5z"/>
<path d="M2414 41 c3 -5 21 -14 38 -20 28 -9 30 -9 16 3 -10 7 -15 16 -11 19
3 4 -6 7 -21 7 -15 0 -25 -4 -22 -9z"/>
<path d="M4070 10 c-12 -7 -10 -9 8 -7 12 0 22 5 22 9 0 11 -12 10 -30 -2z"/>
</g>
</svg>
